HIERARCHY
ROOT Hips
{
 OFFSET 0.000000 0.000000 0.000000
 CHANNELS 6 Xposition Yposition Zposition Yrotation Xrotation Zrotation
 JOINT Chest
 {
  OFFSET 0.000000 9.585900 0.002600
  CHANNELS 3 Yrotation Xrotation Zrotation
  JOINT Chest2
  {
   OFFSET 0.000000 9.601200 -0.005300
   CHANNELS 3 Yrotation Xrotation Zrotation
   JOINT Chest3
   {
    OFFSET 0.000000 9.561800 0.000000
    CHANNELS 3 Yrotation Xrotation Zrotation
    JOINT Chest4
    {
     OFFSET 0.000000 9.552100 0.000000
     CHANNELS 3 Yrotation Xrotation Zrotation
     JOINT Neck
     {
      OFFSET 0.000000 14.453000 0.000000
      CHANNELS 3 Yrotation Xrotation Zrotation
      JOINT Head
      {
       OFFSET 0.000000 8.936500 -0.011300
       CHANNELS 3 Yrotation Xrotation Zrotation
       End Site
       {
        OFFSET 0.000000 17.073600 -0.006000
       }
      }
     }
     JOINT RightCollar
     {
      OFFSET -2.921100 9.558500 0.000000
      CHANNELS 3 Yrotation Xrotation Zrotation
      JOINT RightShoulder
      {
       OFFSET -13.519700 0.000000 0.000000
       CHANNELS 3 Yrotation Xrotation Zrotation
       JOINT RightElbow
       {
        OFFSET 0.000000 -29.696600 0.000000
        CHANNELS 3 Yrotation Xrotation Zrotation
        JOINT RightWrist
        {
         OFFSET 0.000000 -24.004700 0.000000
         CHANNELS 3 Yrotation Xrotation Zrotation
         End Site
         {
          OFFSET 0.000000 -17.728500 0.000000
         }
        }
       }
      }
     }
     JOINT LeftCollar
     {
      OFFSET 2.921100 9.558500 0.000000
      CHANNELS 3 Yrotation Xrotation Zrotation
      JOINT LeftShoulder
      {
       OFFSET 13.519700 0.000000 0.000000
       CHANNELS 3 Yrotation Xrotation Zrotation
       JOINT LeftElbow
       {
        OFFSET 0.000000 -29.696600 0.000000
        CHANNELS 3 Yrotation Xrotation Zrotation
        JOINT LeftWrist
        {
         OFFSET 0.000000 -24.004700 0.000000
         CHANNELS 3 Yrotation Xrotation Zrotation
         End Site
         {
          OFFSET 0.000000 -17.728500 0.000000
         }
        }
       }
      }
     }
    }
   }
  }
 }
 JOINT RightHip
 {
  OFFSET -7.771700 -0.012900 -0.001300
  CHANNELS 3 Yrotation Xrotation Zrotation
  JOINT RightKnee
  {
   OFFSET 0.000000 -40.869800 0.001200
   CHANNELS 3 Yrotation Xrotation Zrotation
   JOINT RightAnkle
   {
    OFFSET 0.000000 -39.717900 0.002100
    CHANNELS 3 Yrotation Xrotation Zrotation
    JOINT RightToe
    {
     OFFSET 0.000000 -4.965400 11.033500
     CHANNELS 3 Yrotation Xrotation Zrotation
     End Site
     {
      OFFSET 0.000000 -1.423100 5.872300
     }
    }
   }
  }
 }
 JOINT LeftHip
 {
  OFFSET 7.771700 -0.012900 -0.001300
  CHANNELS 3 Yrotation Xrotation Zrotation
  JOINT LeftKnee
  {
   OFFSET 0.000000 -40.869800 0.001200
   CHANNELS 3 Yrotation Xrotation Zrotation
   JOINT LeftAnkle
   {
    OFFSET 0.000000 -39.717900 0.002100
    CHANNELS 3 Yrotation Xrotation Zrotation
    JOINT LeftToe
    {
     OFFSET 0.000000 -4.965400 11.033500
     CHANNELS 3 Yrotation Xrotation Zrotation
     End Site
     {
      OFFSET 0.000000 -1.423100 5.872300
     }
    }
   }
  }
 }
}
MOTION
Frames: 8
Frame Time: 0.008333
-119.919194 62.108039 19.531182 176.920202 -51.752326 -0.455473 3.605232 26.823839 0.700380 0.580183 4.577508 0.206848 0.922821 7.235829 0.387037 3.040858 21.772451 1.586012 3.690481 17.083645 4.362800 5.180589 -4.099070 6.731037 5.248551 5.368432 5.327011 -2.789845 -6.832840 -13.302973 -136.521625 -48.809689 165.664138 12.048691 -4.875652 -17.387785 -8.265260 3.125069 -0.130518 -2.927620 -6.829500 13.495720 127.062022 -62.801342 -154.057371 14.996822 -13.056039 2.660647 3.681792 -15.023444 -6.834535 -2.690684 58.146525 -6.956315 0.328820 -4.041673 11.060861 0.844407 -0.425724 0.440195 -5.671237 -11.865954 0.326218 32.308781 74.037774 34.935066 1.723212 -10.500047 -6.569935 0.022502 0.842268 0.012370
-119.909841 62.105481 19.524518 176.911436 -51.722314 -0.457317 3.621182 26.806000 0.686389 0.582918 4.575364 0.208301 0.923451 7.231606 0.388876 3.045025 21.772948 1.563080 3.558203 17.093523 4.313934 5.030206 -4.091240 6.723362 5.257088 5.370565 5.344405 -2.885811 -6.816344 -13.264304 -136.536647 -48.797863 165.683716 12.043763 -4.875642 -17.362567 -8.256983 3.121202 -0.144889 -2.937016 -6.832857 13.546988 127.019094 -62.775043 -154.032894 15.040666 -13.098668 2.657716 3.667728 -15.059622 -6.813045 -2.696912 58.180977 -6.970747 0.343588 -4.189002 11.023781 0.826096 -0.426354 0.449831 -5.663116 -11.896165 0.346303 32.316824 74.042476 34.941110 1.717918 -10.501319 -6.573391 0.016710 0.838688 0.018345
-119.902350 62.105924 19.515459 176.926178 -51.717590 -0.472239 3.622038 26.812933 0.675514 0.580689 4.568624 0.215366 0.922938 7.228333 0.393347 3.046225 21.778936 1.525430 3.427932 17.100087 4.264683 4.880370 -4.086723 6.712347 5.268436 5.385892 5.334058 -2.978592 -6.813309 -13.198953 -136.563215 -48.786286 165.705249 12.014839 -4.887899 -17.314671 -8.252709 3.117014 -0.146619 -2.932429 -6.845655 13.569883 126.975267 -62.763784 -154.017054 15.071533 -13.139285 2.657493 3.652584 -15.068492 -6.804715 -2.676603 58.227595 -6.943876 0.339094 -4.337351 10.977152 0.815364 -0.433002 0.460257 -5.667440 -11.899988 0.359249 32.326754 74.048226 34.948904 1.702908 -10.506772 -6.579879 0.040385 0.834676 0.025527
-119.896440 62.104746 19.507720 176.933538 -51.703428 -0.477515 3.625455 26.810282 0.658460 0.584297 4.570274 0.207988 0.923320 7.223923 0.392682 3.050803 21.777711 1.512612 3.327691 17.100402 4.233026 4.705980 -4.083479 6.688126 5.279149 5.426738 5.290366 -3.065961 -6.836783 -13.101114 -136.577481 -48.769751 165.732703 12.041579 -4.875473 -17.317829 -8.249421 3.110079 -0.148225 -2.925542 -6.873452 13.568189 126.914323 -62.744878 -153.997648 15.062937 -13.148460 2.679073 3.629390 -15.094576 -6.794610 -2.631466 58.281110 -6.912504 0.322401 -4.471822 10.929808 0.812346 -0.449341 0.471577 -5.669411 -11.913563 0.364713 32.334159 74.051769 34.954823 1.696709 -10.514327 -6.585801 0.055618 0.836545 0.032232
-119.893414 62.106556 19.497608 176.976604 -51.714937 -0.497476 3.612101 26.845535 0.618414 0.580604 4.560879 0.217728 0.921735 7.218183 0.391292 3.057759 21.779623 1.503166 3.227787 17.098942 4.200161 4.532619 -4.083632 6.661507 5.288896 5.448283 5.271786 -3.114214 -6.858410 -13.037241 -136.576686 -48.758948 165.749306 12.097744 -4.851024 -17.350928 -8.248037 3.099539 -0.150745 -2.926123 -6.883448 13.589646 126.888700 -62.699237 -153.995981 15.057914 -13.147637 2.705125 3.595506 -15.107352 -6.788320 -2.518940 58.370094 -6.829601 0.225515 -4.564366 10.893932 0.838958 -0.463443 0.489214 -5.689888 -11.902409 0.354962 32.337790 74.055218 34.956469 1.675094 -10.520490 -6.589803 0.076965 0.835961 0.041443
-119.883451 62.104340 19.491389 176.967083 -51.698298 -0.523542 3.646020 26.838298 0.645164 0.581973 4.560842 0.215681 0.932721 7.230216 0.364365 3.064039 21.765996 1.519923 3.128492 17.096284 4.166876 4.360519 -4.085940 6.633837 5.294937 5.461179 5.262859 -3.161190 -6.873252 -12.987066 -136.620086 -48.764407 165.750615 12.092233 -4.854927 -17.317854 -8.250670 3.087879 -0.155619 -2.929148 -6.893123 13.610241 126.881985 -62.606168 -154.014093 15.021875 -13.088857 2.750218 3.596438 -15.135142 -6.739799 -2.521287 58.405258 -6.835659 0.229229 -4.653205 10.881151 0.833792 -0.530768 0.463861 -5.683546 -11.916066 0.411028 32.326529 74.073318 34.939118 1.643556 -10.546919 -6.583299 0.090248 0.843145 0.045617
-119.879367 62.100062 19.486696 176.939641 -51.668815 -0.506125 3.676165 26.820244 0.639126 0.583515 4.560452 0.213936 0.935192 7.229633 0.361619 3.070627 21.764935 1.512424 3.079300 17.088729 4.166898 4.146975 -4.086054 6.587204 5.299429 5.473016 5.255132 -3.281451 -6.860732 -12.938561 -136.653947 -48.748071 165.776820 12.035013 -4.885214 -17.237599 -8.257089 3.079221 -0.151894 -2.933032 -6.900880 13.626613 126.886106 -62.595004 -154.023590 15.036733 -13.110540 2.765851 3.616570 -15.159897 -6.726711 -2.524401 58.425530 -6.837139 0.235232 -4.811846 10.810895 0.810367 -0.525062 0.491718 -5.667153 -11.945496 0.423300 32.325251 74.080094 34.933007 1.634876 -10.560759 -6.579925 0.095668 0.848004 0.046065
-119.879253 62.099166 19.479406 176.956627 -51.666689 -0.504688 3.664311 26.825253 0.618245 0.584287 4.560051 0.213108 0.942054 7.233736 0.350953 3.076379 21.762791 1.504910 2.960917 17.089108 4.117275 4.006951 -4.090026 6.568442 5.305178 5.484204 5.248779 -3.367961 -6.856410 -12.896093 -136.672521 -48.736898 165.791026 12.037556 -4.893672 -17.210634 -8.263603 3.074280 -0.128651 -2.934737 -6.903662 13.632353 126.894399 -62.572145 -154.035302 15.049474 -13.142941 2.790973 3.616673 -15.164369 -6.730249 -2.500448 58.471644 -6.821869 0.211334 -4.939446 10.763024 0.797228 -0.532918 0.508163 -5.673861 -11.949544 0.413222 32.316997 74.087085 34.919119 1.616872 -10.570189 -6.579623 0.113333 0.850774 0.054330
